<svg width="20" height="20" viewBox="0 0 20 20" fill="none" xmlns="http://www.w3.org/2000/svg">
<path fill-rule="evenodd" clip-rule="evenodd" d="M8.24349 7.46354H11.24V8.95615C11.6717 8.0977 12.7786 7.32638 14.4415 7.32638C17.6292 7.32638 18.386 9.03522 18.386 12.1705V17.9772H15.1587V12.8845C15.1587 11.0991 14.7271 10.0921 13.6282 10.0921C12.1041 10.0921 11.4708 11.1773 11.4708 12.8837V17.9772H8.24349V7.46354ZM2.70952 17.84H5.93679V7.32638H2.70952V17.84ZM6.3991 3.89821C6.39922 4.16871 6.34557 4.43654 6.24128 4.68614C6.13698 4.93573 5.98411 5.1621 5.79157 5.35209C5.40139 5.73987 4.87325 5.95693 4.32316 5.95559C3.77403 5.95522 3.24711 5.73872 2.85636 5.3529C2.66451 5.16226 2.51216 4.93563 2.40805 4.68601C2.30393 4.43639 2.2501 4.16867 2.24963 3.89821C2.24963 3.35199 2.46747 2.82917 2.85717 2.44351C3.24758 2.05718 3.77471 1.84058 4.32396 1.84082C4.87421 1.84082 5.40187 2.05785 5.79157 2.44351C6.18045 2.82917 6.3991 3.35199 6.3991 3.89821Z" fill="#0A013B"/>
</svg>
