<svg width="20" height="20" viewBox="0 0 20 20" fill="none" xmlns="http://www.w3.org/2000/svg">
<path d="M10.0001 1.6665C5.40511 1.6665 1.66675 5.40487 1.66675 9.99984C1.66675 14.5948 5.40511 18.3332 10.0001 18.3332C14.5951 18.3332 18.3334 14.5948 18.3334 9.99984C18.3334 5.40487 14.5951 1.6665 10.0001 1.6665ZM10.0001 2.9165C13.9195 2.9165 17.0834 6.08042 17.0834 9.99984C17.0834 13.4918 14.5697 16.3775 11.2501 16.9668V12.0832H12.7605C12.9705 12.0832 13.1481 11.9261 13.1739 11.7178L13.3302 10.4678C13.3452 10.3494 13.3076 10.2306 13.2284 10.1406C13.1497 10.051 13.0363 9.99984 12.9167 9.99984H11.2501V8.5415C11.2501 8.08192 11.6238 7.70817 12.0834 7.70817H12.9167C13.1467 7.70817 13.3334 7.52192 13.3334 7.2915V5.88525C13.3334 5.66942 13.1688 5.48938 12.9542 5.47021C12.9296 5.46813 12.3417 5.4165 11.5976 5.4165C9.76132 5.4165 8.75008 6.50658 8.75008 8.48617V9.99984H7.08341C6.85341 9.99984 6.66675 10.1861 6.66675 10.4165V11.6665C6.66675 11.8969 6.85341 12.0832 7.08341 12.0832H8.75008V16.9668C5.43042 16.3775 2.91675 13.4918 2.91675 9.99984C2.91675 6.08042 6.08066 2.9165 10.0001 2.9165Z" fill="#0A013B"/>
</svg>
