<svg width="20" height="20" viewBox="0 0 20 20" fill="none" xmlns="http://www.w3.org/2000/svg">
<path d="M18.3334 3.33252C17.6834 3.71835 16.3792 4.24419 15.6126 4.39585C15.5901 4.40169 15.5717 4.40919 15.5501 4.41502C14.8726 3.74669 13.9442 3.33252 12.9167 3.33252C10.8459 3.33252 9.16675 5.01169 9.16675 7.08252C9.16675 7.19169 9.15758 7.39252 9.16675 7.49919C6.37258 7.49919 4.24591 6.03585 2.72091 4.16585C2.55508 4.58252 2.48258 5.24085 2.48258 5.85919C2.48258 7.02669 3.39508 8.17335 4.81591 8.88419C4.55425 8.95169 4.26591 9.00002 3.96591 9.00002C3.48175 9.00002 2.96925 8.87252 2.50008 8.48585C2.50008 8.50002 2.50008 8.51335 2.50008 8.52835C2.50008 10.16 4.23175 11.2709 5.77175 11.58C5.45925 11.7642 4.82925 11.7825 4.52175 11.7825C4.30508 11.7825 3.53841 11.6834 3.33341 11.645C3.76175 12.9825 5.30675 13.7342 6.77925 13.7609C5.62758 14.6642 4.82841 14.9992 2.47008 14.9992H1.66675C3.15675 15.9542 5.05425 16.6667 6.95591 16.6667C13.1476 16.6667 16.6667 11.9475 16.6667 7.49919C16.6667 7.42752 16.6651 7.27752 16.6626 7.12669C16.6626 7.11169 16.6667 7.09752 16.6667 7.08252C16.6667 7.06002 16.6601 7.03835 16.6601 7.01585C16.6576 6.90252 16.6551 6.79669 16.6526 6.74169C17.3109 6.26669 17.8817 5.67419 18.3334 4.99919C17.7292 5.26752 17.0809 5.44752 16.4001 5.52919C17.0951 5.11252 18.0826 4.11919 18.3334 3.33252Z" fill="#0A013B"/>
</svg>
